<svg width="47" height="47" viewBox="0 0 47 47" fill="none" xmlns="http://www.w3.org/2000/svg">
<rect width="46.2" height="46.2" rx="23.1" fill="#FCFCFD"/>
<path d="M26.0479 21.2188V17.2812C26.0479 16.411 25.7022 15.5764 25.0869 14.9611C24.4715 14.3457 23.6369 14 22.7667 14C21.8964 14 21.0618 14.3457 20.4465 14.9611C19.8311 15.5764 19.4854 16.411 19.4854 17.2812V21.2188M29.4219 19.4749L30.5271 29.9749C30.5883 30.5567 30.1333 31.0625 29.5479 31.0625H15.9854C15.8474 31.0626 15.7108 31.0337 15.5846 30.9777C15.4585 30.9216 15.3455 30.8396 15.2531 30.7371C15.1607 30.6345 15.0908 30.5136 15.0482 30.3823C15.0055 30.251 14.9909 30.1122 15.0054 29.9749L16.1114 19.4749C16.1369 19.233 16.2511 19.0091 16.4319 18.8464C16.6127 18.6837 16.8473 18.5937 17.0906 18.5938H28.4428C28.9468 18.5938 29.3694 18.9744 29.4219 19.4749ZM19.8136 21.2188C19.8136 21.3058 19.779 21.3892 19.7174 21.4508C19.6559 21.5123 19.5725 21.5469 19.4854 21.5469C19.3984 21.5469 19.3149 21.5123 19.2534 21.4508C19.1919 21.3892 19.1573 21.3058 19.1573 21.2188C19.1573 21.1317 19.1919 21.0483 19.2534 20.9867C19.3149 20.9252 19.3984 20.8906 19.4854 20.8906C19.5725 20.8906 19.6559 20.9252 19.7174 20.9867C19.779 21.0483 19.8136 21.1317 19.8136 21.2188ZM26.3761 21.2188C26.3761 21.3058 26.3415 21.3892 26.2799 21.4508C26.2184 21.5123 26.135 21.5469 26.0479 21.5469C25.9609 21.5469 25.8774 21.5123 25.8159 21.4508C25.7544 21.3892 25.7198 21.3058 25.7198 21.2188C25.7198 21.1317 25.7544 21.0483 25.8159 20.9867C25.8774 20.9252 25.9609 20.8906 26.0479 20.8906C26.135 20.8906 26.2184 20.9252 26.2799 20.9867C26.3415 21.0483 26.3761 21.1317 26.3761 21.2188Z" stroke="black" stroke-width="1.5" stroke-linecap="round" stroke-linejoin="round"/>
</svg>
